<?xml version="1.0" encoding="UTF-8" standalone="no"?>
<svg
   xmlns:dc="http://purl.org/dc/elements/1.1/"
   xmlns:cc="http://creativecommons.org/ns#"
   xmlns:rdf="http://www.w3.org/1999/02/22-rdf-syntax-ns#"
   xmlns:svg="http://www.w3.org/2000/svg"
   xmlns="http://www.w3.org/2000/svg"
   viewBox="0 0 576 258.66666"
   height="258.66666"
   width="576"
   xml:space="preserve"
   id="svg2"
   version="1.1"><metadata
     id="metadata8"><rdf:RDF><cc:Work
         rdf:about=""><dc:format>image/svg+xml</dc:format><dc:type
           rdf:resource="http://purl.org/dc/dcmitype/StillImage" /></cc:Work></rdf:RDF></metadata><defs
     id="defs6" /><g
     transform="matrix(1.3333333,0,0,-1.3333333,0,258.66667)"
     id="g10"><g
       transform="scale(0.1)"
       id="g12"><path
         id="path14"
         style="fill:#1162a5;fill-opacity:1;fill-rule:nonzero;stroke:none"
         d="m 3115.05,422.078 c 0,14.926 12.1,27.027 27.02,27.027 14.93,0 27.03,-12.101 27.03,-27.027 0,-14.926 -12.1,-27.023 -27.03,-27.023 -14.92,0 -27.02,12.097 -27.02,27.023 z m 834.9,475.477 c -0.4,-43.121 -15.77,-79.758 -46.1,-109.903 -30.54,-30.109 -67.09,-45.164 -109.65,-45.164 -43.15,0 -80.2,14.95 -111.15,44.848 -30.73,30.094 -46.09,66.68 -46.09,109.746 0,43.469 15.26,80.445 45.79,110.938 30.36,30.68 67.32,46.02 110.86,46.02 21.47,0 42.56,-4.36 63.24,-13.07 l -20.68,-46.615 c -14.19,5.915 -28.47,8.875 -42.86,8.875 -29.55,0 -54.48,-10.3 -74.77,-30.875 -20.49,-20.777 -30.74,-45.773 -30.74,-74.98 0,-29.207 10.45,-53.902 31.33,-74.094 21.08,-20.386 46.1,-30.582 75.07,-30.582 28.96,0 53.59,10.141 73.89,30.426 20.29,20.277 30.63,45.09 31.03,74.43 z M 3512.05,746.723 V 1049.2 h 50.24 V 746.723 Z m 0,353.297 v 50.21 h 50.24 v -50.21 z m -50.5,0 c -22.07,0 -41.08,-7.98 -57.04,-23.93 -15.77,-15.76 -23.65,-34.66 -23.65,-56.72 v -20.382 h 50.54 v -50.211 h -50.54 V 746.723 h -50.23 v 202.054 h -25.43 v 50.211 h 25.43 v 20.382 c 0,34.46 13.2,64.89 39.6,91.28 26.4,26.39 56.84,39.58 91.32,39.58 z m -362.53,0 h -25.12 l 50.23,50.82 h 50.55 z m 93.21,-353.297 v 45.976 c -29.78,-33.469 -66.85,-50.211 -111.23,-50.211 -42,0 -77.79,15.344 -107.38,46.028 -29.39,30.875 -44.08,67.363 -44.08,109.457 0,42.871 15.28,79.554 45.84,110.047 30.76,30.68 67.64,46.02 110.63,46.02 43.18,0 80.06,-15.35 110.62,-46.05 30.56,-30.51 45.84,-67.213 45.84,-110.115 V 746.723 Z m 0,151.238 c 0,28.82 -10.44,53.519 -31.32,74.102 -20.88,20.773 -45.79,31.167 -74.75,31.167 -28.76,0 -53.58,-10.394 -74.46,-31.167 -20.88,-20.583 -31.32,-45.282 -31.32,-74.102 0,-28.816 10.44,-53.613 31.32,-74.387 20.88,-20.582 45.7,-30.875 74.46,-30.875 28.76,0 53.68,10.293 74.75,30.875 20.88,20.774 31.32,45.571 31.32,74.387 z m -299.88,105.589 c -22.27,0 -41.28,-7.87 -57.04,-23.612 -15.76,-15.743 -23.65,-34.739 -23.65,-56.973 V 746.723 h -50.84 v 176.242 c 0,34.637 13.25,65.148 39.76,91.515 26.5,26.38 57.09,39.56 91.77,39.56 z M 2685.98,776.605 c 0,-42.351 -15.36,-78.89 -46.1,-109.621 -30.73,-30.726 -67.47,-46.089 -110.23,-46.089 -25.81,0 -50.44,6.441 -73.89,19.32 -23.45,12.68 -42.36,29.875 -56.75,51.586 l 42.56,27.758 c 21.48,-31.899 50.84,-47.848 88.08,-47.848 33.49,0 59.9,12.16 79.21,36.477 17.93,21.746 26.89,49.914 26.89,84.511 -29.79,-33.469 -66.86,-50.211 -111.23,-50.211 -42.01,0 -77.8,15.344 -107.38,46.028 -29.39,30.875 -44.09,67.363 -44.09,109.457 0,42.683 15.38,79.363 46.15,110.047 30.95,30.68 67.73,46.02 110.32,46.02 42.78,0 79.55,-15.36 110.32,-46.09 30.76,-30.727 46.14,-67.462 46.14,-110.204 z m -50.23,121.356 c 0,28.82 -10.45,53.519 -31.33,74.102 -20.88,20.773 -45.79,31.167 -74.75,31.167 -28.76,0 -53.57,-10.394 -74.45,-31.167 -20.88,-20.583 -31.32,-45.282 -31.32,-74.102 0,-28.816 10.44,-53.613 31.32,-74.387 20.88,-20.582 45.69,-30.875 74.45,-30.875 28.76,0 53.68,10.293 74.75,30.875 20.88,20.774 31.33,45.571 31.33,74.387 z m -312.62,0.012 c 0,-42.875 -15.28,-79.555 -45.84,-110.047 -30.37,-30.293 -67.25,-45.438 -110.63,-45.438 -43.18,0 -80.05,15.145 -110.62,45.438 -30.56,30.492 -45.84,67.172 -45.84,110.047 0,42.871 15.28,79.554 45.84,110.047 30.76,30.68 67.64,46.02 110.62,46.02 43.18,0 80.06,-15.34 110.63,-46.02 30.56,-30.493 45.84,-67.176 45.84,-110.047 z m -50.24,-0.012 c 0,28.82 -10.44,53.519 -31.32,74.102 -20.88,20.773 -45.8,31.167 -74.76,31.167 -28.76,0 -53.57,-10.394 -74.45,-31.167 -20.88,-20.583 -31.32,-45.282 -31.32,-74.102 0,-28.816 10.44,-53.613 31.32,-74.387 20.88,-20.582 45.69,-30.875 74.45,-30.875 28.76,0 53.68,10.293 74.76,30.875 20.88,20.774 31.32,45.571 31.32,74.387 z m -299.88,105.589 c -22.27,0 -41.28,-7.87 -57.05,-23.612 -15.76,-15.743 -23.63,-34.739 -23.63,-56.973 V 746.723 h -50.85 v 176.242 c 0,34.637 13.25,65.148 39.75,91.515 26.51,26.38 57.1,39.56 91.78,39.56 z M 1766.64,898.199 c 0,-42.937 -15.28,-79.676 -45.84,-110.207 -30.37,-30.336 -67.25,-45.504 -110.62,-45.504 -43.18,0 -80.06,15.145 -110.63,45.438 -30.56,30.492 -45.84,67.172 -45.84,110.047 0,42.09 14.7,78.672 44.08,109.747 29.59,30.88 65.38,46.32 107.38,46.32 44.19,0 81.26,-16.94 111.23,-50.81 v 147 h 50.24 z m -50.24,-0.238 c 0,28.82 -10.44,53.519 -31.32,74.102 -20.88,20.773 -45.79,31.167 -74.76,31.167 -28.75,0 -53.57,-10.394 -74.44,-31.167 -20.88,-20.583 -31.33,-45.282 -31.33,-74.102 0,-28.816 10.45,-53.613 31.33,-74.387 20.87,-20.582 45.69,-30.875 74.44,-30.875 28.77,0 53.69,10.293 74.76,30.875 20.88,20.774 31.32,45.571 31.32,74.387 z M 1328.81,746.723 V 1049.2 h 50.24 V 746.723 Z m 0,353.297 v 50.21 h 50.24 v -50.21 z M 1177.19,746.723 v 176.015 c 0,22.203 -7.87,41.172 -23.59,56.899 -15.73,15.722 -34.7,23.593 -56.91,23.593 -21.82,0 -40.79,-7.871 -56.91,-23.589 -15.73,-15.731 -23.59,-34.7 -23.59,-56.903 V 746.723 h -50.241 v 403.507 h 50.241 V 1012.1 c 24.42,27.96 54.76,41.94 91,41.94 34.47,0 63.52,-13.38 87.16,-40.15 22.45,-25.777 33.69,-56.089 33.69,-90.925 V 746.723 Z m 3085.32,151.238 c 0,28.82 -10.44,53.519 -31.33,74.102 -20.87,20.773 -45.79,31.167 -74.75,31.167 -28.75,0 -53.57,-10.394 -74.45,-31.167 -20.88,-20.583 -31.32,-45.282 -31.32,-74.102 0,-28.816 10.44,-53.613 31.32,-74.387 20.88,-20.582 45.7,-30.875 74.45,-30.875 28.77,0 53.68,10.293 74.75,30.875 20.89,20.774 31.33,45.571 31.33,74.387 z m 50.24,0.012 c 0,-42.875 -15.29,-79.555 -45.85,-110.047 -30.36,-30.293 -67.24,-45.438 -110.62,-45.438 -43.18,0 -80.06,15.145 -110.63,45.438 -30.55,30.492 -45.83,67.172 -45.83,110.047 0,42.871 15.28,79.554 45.83,110.047 30.77,30.68 67.64,46.02 110.63,46.02 43.18,0 80.05,-15.34 110.62,-46.02 30.56,-30.493 45.85,-67.176 45.85,-110.047 z M 611.379,791.199 C 693.359,405.652 1072.41,159.531 1458.03,241.449 1667.8,286.016 1836.3,418.48 1933.15,592.086 1807.26,311.473 1550.71,95.0469 1225.02,25.8555 670.113,-92.0352 124.68,262.094 6.70313,816.906 -67.9258,1238.46 503.867,1317.21 611.379,791.199 Z m 723.871,747.511 c -271.26,57.64 -537.883,-115.42 -595.539,-386.54 -31.367,-147.49 5.57,-293.611 89.445,-405.482 -144.343,161.136 -210.058,387.832 -161.359,616.812 82.965,390.16 466.603,639.19 856.943,556.25 292.3,-72.66 179.34,-462.46 -189.49,-381.04 z M 2151.98,348.051 v 91.469 c 0,9.375 -3.1,17.445 -9.31,24.207 -6.3,6.961 -13.96,10.441 -22.97,10.441 -9.88,0 -17.74,-3.238 -23.55,-9.715 -5.82,-6.57 -8.72,-14.883 -8.72,-24.933 v -91.469 h -24.7 v 91.469 c 0,10.05 -2.91,18.363 -8.74,24.933 -5.63,6.477 -13.45,9.715 -23.46,9.715 -9.13,0 -16.8,-3.48 -23.03,-10.441 -6.21,-6.762 -9.32,-14.832 -9.32,-24.207 v -91.469 h -24.99 v 91.59 c 0,16.066 5.53,30 16.58,41.804 11.25,11.805 24.78,17.707 40.58,17.707 18.52,0 33.4,-7.117 44.65,-21.347 11.06,14.23 25.94,21.347 44.65,21.347 15.9,0 29.39,-5.902 40.44,-17.707 11.05,-11.804 16.58,-25.738 16.58,-41.804 v -91.59 z m 183.84,74.359 c 0,14.172 -5.12,26.317 -15.39,36.434 -10.26,10.215 -22.5,15.324 -36.74,15.324 -14.13,0 -26.33,-5.109 -36.58,-15.324 -10.27,-10.117 -15.4,-22.262 -15.4,-36.434 0,-14.168 5.13,-26.359 15.4,-36.574 10.25,-10.117 22.45,-15.18 36.58,-15.18 14.14,0 26.38,5.063 36.74,15.18 10.27,10.215 15.39,22.406 15.39,36.574 z m 0,-74.359 v 22.605 c -14.63,-16.457 -32.85,-24.687 -54.66,-24.687 -20.64,0 -38.23,7.543 -52.77,22.629 -14.45,15.183 -21.67,33.121 -21.67,53.82 0,21.082 7.51,39.117 22.53,54.105 15.12,15.086 33.24,22.629 54.37,22.629 21.22,0 39.34,-7.547 54.37,-22.644 15.02,-14.996 22.53,-33.043 22.53,-54.137 v -74.32 z m 126.12,126.277 c -10.94,0 -20.29,-3.871 -28.03,-11.609 -7.75,-7.742 -11.62,-17.078 -11.62,-28.012 v -86.656 h -24.99 v 86.656 c 0,17.027 6.51,32.027 19.54,44.996 13.02,12.965 28.05,19.449 45.1,19.449 z m 31.07,47.43 v 24.687 h 24.69 v -24.687 z m 0,-173.707 v 148.722 h 24.69 V 348.051 Z m 172.05,0 v 86.543 c 0,10.918 -3.93,20.242 -11.78,27.976 -7.76,7.731 -17.07,11.598 -27.94,11.598 -10.96,0 -20.32,-3.867 -28.07,-11.598 -7.76,-7.734 -11.64,-17.058 -11.64,-27.976 v -86.543 h -24.99 v 86.656 c 0,17.027 6.5,32.027 19.51,44.996 13,12.965 28.04,19.449 45.12,19.449 16.98,0 31.97,-6.484 44.98,-19.449 13,-12.969 19.5,-27.969 19.5,-44.996 v -86.656 z m 171.55,0 v 86.543 c 0,10.918 -3.87,20.242 -11.6,27.976 -7.73,7.731 -17.05,11.598 -27.97,11.598 -10.72,0 -20.05,-3.867 -27.97,-11.598 -7.73,-7.734 -11.59,-17.058 -11.59,-27.976 v -86.543 h -24.69 v 198.394 h 24.69 v -67.914 c 12,13.746 26.91,20.621 44.72,20.621 16.94,0 31.22,-6.578 42.84,-19.738 11.03,-12.68 16.55,-27.582 16.55,-44.707 v -86.656 z m 190.82,74.359 c 0,14.172 -5.13,26.317 -15.39,36.434 -10.26,10.215 -22.51,15.324 -36.74,15.324 -14.14,0 -26.33,-5.109 -36.59,-15.324 -10.26,-10.117 -15.39,-22.262 -15.39,-36.434 0,-14.168 5.13,-26.359 15.39,-36.574 10.26,-10.117 22.45,-15.18 36.59,-15.18 14.14,0 26.38,5.063 36.74,15.18 10.26,10.215 15.39,22.406 15.39,36.574 z m 0,-74.359 v 22.605 c -14.63,-16.457 -32.86,-24.687 -54.66,-24.687 -20.65,0 -38.24,7.543 -52.78,22.629 -14.44,15.183 -21.67,33.121 -21.67,53.82 0,21.082 7.52,39.117 22.54,54.105 15.12,15.086 33.24,22.629 54.37,22.629 21.22,0 39.34,-7.547 54.36,-22.644 15.02,-14.996 22.53,-33.043 22.53,-54.137 v -74.32 z m 328.06,79.246 c 0,13.609 -4.92,25.277 -14.77,34.996 -9.75,9.812 -21.45,14.723 -35.11,14.723 -13.65,0 -25.4,-4.911 -35.24,-14.723 -9.76,-9.719 -14.63,-21.387 -14.63,-34.996 0,-13.613 4.87,-25.324 14.63,-35.137 9.84,-9.722 21.59,-14.582 35.24,-14.582 13.66,0 25.36,4.86 35.11,14.582 9.85,9.813 14.77,21.524 14.77,35.137 z m 24.01,0.004 c 0,-19.973 -6.98,-37.207 -20.93,-51.699 -13.86,-14.493 -30.69,-21.739 -50.51,-21.739 -20.83,0 -38.27,7.907 -52.32,23.715 v -69.144 h -24.01 v 118.812 c 0,20.266 7.22,37.602 21.65,52.012 14.52,14.504 31.94,21.758 52.23,21.758 20.21,0 37.57,-7.246 52.1,-21.739 14.53,-14.402 21.79,-31.726 21.79,-51.976 z m 150.25,-0.004 c 0,13.609 -4.94,25.277 -14.8,34.996 -9.85,9.812 -21.62,14.723 -35.3,14.723 -13.58,0 -25.29,-4.911 -35.15,-14.723 -9.87,-9.719 -14.79,-21.387 -14.79,-34.996 0,-13.613 4.92,-25.324 14.79,-35.137 9.86,-9.722 21.57,-14.582 35.15,-14.582 13.58,0 25.35,4.86 35.3,14.582 9.86,9.813 14.8,21.524 14.8,35.137 z m 23.72,0.004 c 0,-20.25 -7.22,-37.578 -21.65,-51.977 -14.34,-14.308 -31.75,-21.461 -52.24,-21.461 -20.39,0 -37.8,7.153 -52.24,21.461 -14.43,14.399 -21.64,31.727 -21.64,51.977 0,20.25 7.21,37.574 21.64,51.976 14.53,14.493 31.94,21.739 52.24,21.739 20.39,0 37.81,-7.246 52.24,-21.739 14.43,-14.402 21.65,-31.726 21.65,-51.976 z m 94.54,49.871 c -10.51,0 -19.49,-3.723 -26.93,-11.156 -7.44,-7.438 -11.17,-16.407 -11.17,-26.911 v -83.242 h -24.01 v 83.242 c 0,16.36 6.26,30.77 18.78,43.223 12.51,12.457 26.96,18.688 43.33,18.688 z m 62.44,-2.445 V 355.863 h -24.01 v 118.864 h -23.73 v 24.003 h 23.73 v 47.715 h 24.01 V 498.73 h 23.87 v -24.003 z m 174.41,-59.235 c 0,-16.269 -6.25,-30.629 -18.74,-43.082 -12.4,-12.367 -26.8,-18.547 -43.21,-18.547 -16.51,0 -30.96,6.18 -43.36,18.547 -12.5,12.453 -18.74,26.813 -18.74,43.082 v 83.238 h 24.01 v -83.136 c 0,-10.489 3.73,-19.446 11.18,-26.875 7.45,-7.426 16.45,-11.141 26.98,-11.141 10.43,0 19.38,3.715 26.83,11.141 7.55,7.332 11.32,16.289 11.32,26.875 v 83.136 h 23.73 z m 155.96,11.805 c 0,13.609 -4.93,25.277 -14.78,34.996 -9.86,9.812 -21.63,14.723 -35.31,14.723 -13.58,0 -25.3,-4.911 -35.15,-14.723 -9.87,-9.719 -14.79,-21.387 -14.79,-34.996 0,-13.613 4.92,-25.324 14.79,-35.137 9.85,-9.722 21.57,-14.582 35.15,-14.582 13.59,0 25.36,4.86 35.31,14.582 9.85,9.813 14.78,21.524 14.78,35.137 z m 23.73,-57.32 c 0,-20.004 -7.26,-37.262 -21.77,-51.778 -14.51,-14.511 -31.87,-21.769 -52.05,-21.769 -12.19,0 -23.82,3.043 -34.9,9.125 -11.07,5.992 -20.01,14.113 -26.79,24.367 l 20.09,13.109 c 10.14,-15.066 24.01,-22.597 41.6,-22.597 15.81,0 28.28,5.742 37.4,17.226 8.46,10.274 12.69,23.578 12.69,39.918 -14.06,-15.808 -31.56,-23.715 -52.52,-23.715 -19.84,0 -36.74,7.246 -50.71,21.739 -13.88,14.586 -20.81,31.816 -20.81,51.699 0,20.16 7.26,37.484 21.79,51.976 14.62,14.493 31.98,21.739 52.09,21.739 20.21,0 37.57,-7.258 52.1,-21.77 14.53,-14.516 21.79,-31.863 21.79,-52.055 z m 156.24,57.32 c 0,13.609 -4.93,25.277 -14.79,34.996 -9.86,9.812 -21.62,14.723 -35.3,14.723 -13.58,0 -25.3,-4.911 -35.15,-14.723 -9.87,-9.719 -14.8,-21.387 -14.8,-34.996 0,-13.613 4.93,-25.324 14.8,-35.137 9.85,-9.722 21.57,-14.582 35.15,-14.582 13.59,0 25.35,4.86 35.3,14.582 9.86,9.813 14.79,21.524 14.79,35.137 z m 0,-71.434 v 21.715 c -14.06,-15.808 -31.57,-23.715 -52.52,-23.715 -19.84,0 -36.74,7.246 -50.71,21.739 -13.88,14.586 -20.81,31.816 -20.81,51.699 0,20.25 7.21,37.574 21.64,51.976 14.53,14.493 31.94,21.739 52.24,21.739 20.39,0 37.81,-7.25 52.24,-21.754 14.43,-14.407 21.65,-31.742 21.65,-52.008 v -71.391 z m 68.21,0 v 190.582 h 23.73 V 355.863 H 4289" /></g></g></svg>